# xmcd
#
# Track frame offsets: 
#        150
#        13325
#        26572
#        39335
#        51555
#        65537
#        78007
#        90030
#        104510
#        116667
#
# Disc length: 1742 seconds
#
# Revision: 1
# Processed by: cddbd v1.5.2PL0 Copyright (c) Steve Scherf et al.
# Submitted via: ExactAudioCopy v0.90b3
#
DISCID=7706cc0a
DTITLE=Moe Bandy - Moe Bandy Greatest Hits
DYEAR=1975
DGENRE=Country
TTITLE0=Rodeo Romeo
TTITLE1=Following The Feeling
TTITLE2=My Woman Loves The Devil Out Of Me
TTITLE3=It Was Always So Easy ( To Find An Unhappy Woman) 
TTITLE4=I Cheated Me Right Out Of You
TTITLE5=Barstool Mountain
TTITLE6=In The Middle Of Losing You
TTITLE7=Hank Williams, You Wrote My Life
TTITLE8=It's A Cheating Situation
TTITLE9=Someday Soon
EXTD=
EXTT0=
EXTT1=
EXTT2=
EXTT3=
EXTT4=
EXTT5=
EXTT6=
EXTT7=
EXTT8=
EXTT9=
PLAYORDER=
